<mxfile host="app.diagrams.net" modified="2023-11-07T08:57:09.306Z" agent="Mozilla/5.0 (Windows NT 10.0; Win64; x64) AppleWebKit/537.36 (KHTML, like Gecko) Chrome/119.0.0.0 Safari/537.36" etag="Qg5QieGUwGAidIWF0ZP1" version="22.0.8" type="github">
  <diagram id="R2lEEEUBdFMjLlhIrx00" name="Page-1">
    <mxGraphModel dx="1318" dy="607" grid="1" gridSize="10" guides="1" tooltips="1" connect="1" arrows="1" fold="1" page="0" pageScale="1" pageWidth="850" pageHeight="1100" math="0" shadow="0" extFonts="Permanent Marker^https://fonts.googleapis.com/css?family=Permanent+Marker">
      <root>
        <mxCell id="0" />
        <mxCell id="1" parent="0" />
        <mxCell id="aNo9oFmmALIDIlGO1wTB-6" value="&lt;span style=&quot;font-weight: normal;&quot;&gt;&lt;font style=&quot;font-size: 18px;&quot;&gt;A&lt;/font&gt;&lt;/span&gt; Object&#39;s methods" style="swimlane;whiteSpace=wrap;html=1;startSize=23;" vertex="1" parent="1">
          <mxGeometry x="40" y="100" width="280" height="420" as="geometry" />
        </mxCell>
        <mxCell id="aNo9oFmmALIDIlGO1wTB-8" value="&lt;div&gt;&lt;br&gt;&lt;/div&gt;" style="text;html=1;align=center;verticalAlign=middle;resizable=0;points=[];autosize=1;strokeColor=none;fillColor=none;" vertex="1" parent="aNo9oFmmALIDIlGO1wTB-6">
          <mxGeometry x="115" y="120" width="20" height="30" as="geometry" />
        </mxCell>
        <mxCell id="aNo9oFmmALIDIlGO1wTB-12" value="d method" style="swimlane;whiteSpace=wrap;html=1;" vertex="1" parent="aNo9oFmmALIDIlGO1wTB-6">
          <mxGeometry x="10" y="280" width="260" height="125" as="geometry" />
        </mxCell>
        <mxCell id="aNo9oFmmALIDIlGO1wTB-13" value="&lt;div style=&quot;text-align: left;&quot;&gt;&lt;span style=&quot;background-color: initial;&quot;&gt;function(){&lt;/span&gt;&lt;/div&gt;&lt;div style=&quot;text-align: left;&quot;&gt;&lt;span style=&quot;background-color: initial;&quot;&gt;&lt;span style=&quot;white-space: pre;&quot;&gt;&#x9;&lt;/span&gt;return () =&amp;gt;&lt;/span&gt;&lt;span style=&quot;background-color: initial;&quot;&gt;console.log(this)&lt;/span&gt;&lt;/div&gt;&lt;div style=&quot;text-align: left;&quot;&gt;&lt;span style=&quot;background-color: initial;&quot;&gt;&lt;span style=&quot;white-space: pre;&quot;&gt;&#x9;&lt;/span&gt;&lt;br&gt;&lt;/span&gt;&lt;/div&gt;&lt;div style=&quot;text-align: left;&quot;&gt;&lt;span style=&quot;background-color: initial;&quot;&gt;}&lt;/span&gt;&lt;/div&gt;" style="text;html=1;align=center;verticalAlign=middle;resizable=0;points=[];autosize=1;strokeColor=none;fillColor=#9999FF;" vertex="1" parent="aNo9oFmmALIDIlGO1wTB-12">
          <mxGeometry x="15" y="38" width="200" height="70" as="geometry" />
        </mxCell>
        <mxCell id="aNo9oFmmALIDIlGO1wTB-23" value="c method" style="swimlane;whiteSpace=wrap;html=1;" vertex="1" parent="aNo9oFmmALIDIlGO1wTB-6">
          <mxGeometry x="10" y="31" width="260" height="125" as="geometry" />
        </mxCell>
        <mxCell id="aNo9oFmmALIDIlGO1wTB-24" value="&lt;div style=&quot;text-align: left;&quot;&gt;&lt;span style=&quot;background-color: initial;&quot;&gt;function(){&lt;/span&gt;&lt;/div&gt;&lt;div style=&quot;text-align: left;&quot;&gt;&lt;span style=&quot;background-color: initial;&quot;&gt;&lt;span style=&quot;white-space: pre;&quot;&gt;&#x9;&lt;/span&gt;return function() {&lt;/span&gt;&lt;/div&gt;&lt;div style=&quot;text-align: left;&quot;&gt;&lt;span style=&quot;background-color: initial;&quot;&gt;&lt;span style=&quot;white-space: pre;&quot;&gt;&#x9;&lt;/span&gt;&lt;span style=&quot;white-space: pre;&quot;&gt;&#x9;&lt;/span&gt;console.log(this)&lt;br&gt;&lt;/span&gt;&lt;/div&gt;&lt;div style=&quot;text-align: left;&quot;&gt;&lt;span style=&quot;background-color: initial;&quot;&gt;&lt;span style=&quot;white-space: pre;&quot;&gt;&#x9;&lt;/span&gt;}&lt;br&gt;&lt;/span&gt;&lt;/div&gt;&lt;div style=&quot;text-align: left;&quot;&gt;&lt;span style=&quot;background-color: initial;&quot;&gt;}&lt;/span&gt;&lt;/div&gt;" style="text;html=1;align=center;verticalAlign=middle;resizable=0;points=[];autosize=1;strokeColor=none;fillColor=#9999FF;" vertex="1" parent="aNo9oFmmALIDIlGO1wTB-23">
          <mxGeometry x="10" y="28" width="160" height="90" as="geometry" />
        </mxCell>
        <mxCell id="aNo9oFmmALIDIlGO1wTB-21" value="&lt;span style=&quot;font-weight: normal;&quot;&gt;&lt;font style=&quot;font-size: 18px;&quot;&gt;B&lt;/font&gt;&lt;/span&gt; Object&#39;s methods" style="swimlane;whiteSpace=wrap;html=1;startSize=23;" vertex="1" parent="1">
          <mxGeometry x="600" width="350" height="780" as="geometry" />
        </mxCell>
        <mxCell id="aNo9oFmmALIDIlGO1wTB-22" value="&lt;div&gt;&lt;br&gt;&lt;/div&gt;" style="text;html=1;align=center;verticalAlign=middle;resizable=0;points=[];autosize=1;strokeColor=none;fillColor=none;" vertex="1" parent="aNo9oFmmALIDIlGO1wTB-21">
          <mxGeometry x="115" y="120" width="20" height="30" as="geometry" />
        </mxCell>
        <mxCell id="aNo9oFmmALIDIlGO1wTB-10" value="e method" style="swimlane;whiteSpace=wrap;html=1;" vertex="1" parent="aNo9oFmmALIDIlGO1wTB-21">
          <mxGeometry x="40" y="34" width="260" height="125" as="geometry" />
        </mxCell>
        <mxCell id="aNo9oFmmALIDIlGO1wTB-29" value="&lt;div style=&quot;text-align: left;&quot;&gt;&lt;span style=&quot;background-color: initial;&quot;&gt;function(){&lt;/span&gt;&lt;/div&gt;&lt;div style=&quot;text-align: left;&quot;&gt;&lt;span style=&quot;background-color: initial;&quot;&gt;&lt;span style=&quot;white-space: pre;&quot;&gt;&#x9;&lt;/span&gt;return function() {&lt;/span&gt;&lt;/div&gt;&lt;div style=&quot;text-align: left;&quot;&gt;&lt;span style=&quot;background-color: initial;&quot;&gt;&lt;span style=&quot;white-space: pre;&quot;&gt;&#x9;&lt;/span&gt;&lt;span style=&quot;white-space: pre;&quot;&gt;&#x9;&lt;/span&gt;console.log(this)&lt;br&gt;&lt;/span&gt;&lt;/div&gt;&lt;div style=&quot;text-align: left;&quot;&gt;&lt;span style=&quot;background-color: initial;&quot;&gt;&lt;span style=&quot;white-space: pre;&quot;&gt;&#x9;&lt;/span&gt;}&lt;br&gt;&lt;/span&gt;&lt;/div&gt;&lt;div style=&quot;text-align: left;&quot;&gt;&lt;span style=&quot;background-color: initial;&quot;&gt;}&lt;/span&gt;&lt;/div&gt;" style="text;html=1;align=center;verticalAlign=middle;resizable=0;points=[];autosize=1;strokeColor=none;fillColor=none;" vertex="1" parent="aNo9oFmmALIDIlGO1wTB-10">
          <mxGeometry x="12" y="28" width="160" height="90" as="geometry" />
        </mxCell>
        <mxCell id="aNo9oFmmALIDIlGO1wTB-26" value="f method" style="swimlane;whiteSpace=wrap;html=1;" vertex="1" parent="aNo9oFmmALIDIlGO1wTB-21">
          <mxGeometry x="40" y="230" width="260" height="125" as="geometry" />
        </mxCell>
        <mxCell id="aNo9oFmmALIDIlGO1wTB-27" value="&lt;div style=&quot;text-align: left;&quot;&gt;&lt;br&gt;&lt;/div&gt;&lt;div style=&quot;text-align: left;&quot;&gt;&lt;span style=&quot;background-color: initial;&quot;&gt;function() {&lt;/span&gt;&lt;span style=&quot;background-color: initial;&quot;&gt;console.log(this)}&lt;/span&gt;&lt;/div&gt;&lt;div style=&quot;text-align: left;&quot;&gt;&lt;span style=&quot;background-color: initial;&quot;&gt;&lt;span style=&quot;white-space: pre;&quot;&gt;&#x9;&lt;/span&gt;&lt;br&gt;&lt;/span&gt;&lt;/div&gt;&lt;div style=&quot;text-align: left;&quot;&gt;&lt;br&gt;&lt;/div&gt;" style="text;html=1;align=center;verticalAlign=middle;resizable=0;points=[];autosize=1;strokeColor=none;fillColor=none;" vertex="1" parent="aNo9oFmmALIDIlGO1wTB-26">
          <mxGeometry x="30" y="38" width="170" height="70" as="geometry" />
        </mxCell>
        <mxCell id="aNo9oFmmALIDIlGO1wTB-35" value="g method" style="swimlane;whiteSpace=wrap;html=1;" vertex="1" parent="aNo9oFmmALIDIlGO1wTB-21">
          <mxGeometry x="40" y="450" width="260" height="125" as="geometry" />
        </mxCell>
        <mxCell id="aNo9oFmmALIDIlGO1wTB-36" value="&lt;div style=&quot;text-align: left;&quot;&gt;&lt;div style=&quot;border-color: var(--border-color);&quot;&gt;function(){&lt;/div&gt;&lt;div style=&quot;border-color: var(--border-color);&quot;&gt;&lt;span style=&quot;border-color: var(--border-color); background-color: initial;&quot;&gt;&lt;span style=&quot;border-color: var(--border-color);&quot;&gt;&lt;span style=&quot;white-space: pre;&quot;&gt;&amp;nbsp;&amp;nbsp;&amp;nbsp;&amp;nbsp;&lt;/span&gt;&lt;/span&gt;return () =&amp;gt;&lt;/span&gt;&lt;span style=&quot;border-color: var(--border-color); background-color: initial;&quot;&gt;console.log(this)&lt;/span&gt;&lt;/div&gt;&lt;div style=&quot;border-color: var(--border-color);&quot;&gt;&lt;span style=&quot;border-color: var(--border-color); background-color: initial;&quot;&gt;&lt;span style=&quot;border-color: var(--border-color);&quot;&gt;&lt;span style=&quot;white-space: pre;&quot;&gt;&amp;nbsp;&amp;nbsp;&amp;nbsp;&amp;nbsp;&lt;/span&gt;&lt;/span&gt;&lt;br style=&quot;border-color: var(--border-color);&quot;&gt;&lt;/span&gt;&lt;/div&gt;&lt;div style=&quot;border-color: var(--border-color);&quot;&gt;&lt;span style=&quot;border-color: var(--border-color); background-color: initial;&quot;&gt;}&lt;/span&gt;&lt;/div&gt;&lt;/div&gt;" style="text;html=1;align=center;verticalAlign=middle;resizable=0;points=[];autosize=1;strokeColor=none;fillColor=none;" vertex="1" parent="aNo9oFmmALIDIlGO1wTB-35">
          <mxGeometry x="12" y="38" width="180" height="70" as="geometry" />
        </mxCell>
        <mxCell id="aNo9oFmmALIDIlGO1wTB-38" value="g method" style="swimlane;whiteSpace=wrap;html=1;" vertex="1" parent="aNo9oFmmALIDIlGO1wTB-21">
          <mxGeometry x="45" y="620" width="260" height="125" as="geometry" />
        </mxCell>
        <mxCell id="aNo9oFmmALIDIlGO1wTB-39" value="&lt;div style=&quot;text-align: left;&quot;&gt;() =&amp;gt;&lt;span style=&quot;border-color: var(--border-color); background-color: initial;&quot;&gt;console.log(this)&lt;/span&gt;&lt;br&gt;&lt;/div&gt;" style="text;html=1;align=center;verticalAlign=middle;resizable=0;points=[];autosize=1;strokeColor=none;fillColor=none;" vertex="1" parent="aNo9oFmmALIDIlGO1wTB-38">
          <mxGeometry x="22" y="58" width="140" height="30" as="geometry" />
        </mxCell>
        <mxCell id="aNo9oFmmALIDIlGO1wTB-31" style="edgeStyle=orthogonalEdgeStyle;rounded=0;orthogonalLoop=1;jettySize=auto;html=1;entryX=0.019;entryY=0.5;entryDx=0;entryDy=0;entryPerimeter=0;" edge="1" parent="1" source="aNo9oFmmALIDIlGO1wTB-23" target="aNo9oFmmALIDIlGO1wTB-29">
          <mxGeometry relative="1" as="geometry" />
        </mxCell>
        <mxCell id="aNo9oFmmALIDIlGO1wTB-32" style="edgeStyle=orthogonalEdgeStyle;rounded=0;orthogonalLoop=1;jettySize=auto;html=1;entryX=-0.025;entryY=0.457;entryDx=0;entryDy=0;entryPerimeter=0;strokeColor=#9999FF;" edge="1" parent="1" source="aNo9oFmmALIDIlGO1wTB-24" target="aNo9oFmmALIDIlGO1wTB-27">
          <mxGeometry relative="1" as="geometry">
            <Array as="points">
              <mxPoint x="480" y="204" />
              <mxPoint x="480" y="300" />
            </Array>
          </mxGeometry>
        </mxCell>
        <mxCell id="aNo9oFmmALIDIlGO1wTB-40" style="edgeStyle=orthogonalEdgeStyle;rounded=0;orthogonalLoop=1;jettySize=auto;html=1;entryX=0;entryY=0.5;entryDx=0;entryDy=0;" edge="1" parent="1" source="aNo9oFmmALIDIlGO1wTB-12" target="aNo9oFmmALIDIlGO1wTB-35">
          <mxGeometry relative="1" as="geometry" />
        </mxCell>
        <mxCell id="aNo9oFmmALIDIlGO1wTB-43" style="edgeStyle=orthogonalEdgeStyle;rounded=0;orthogonalLoop=1;jettySize=auto;html=1;entryX=0;entryY=0.5;entryDx=0;entryDy=0;fillColor=#9999FF;strokeColor=#9999FF;" edge="1" parent="1" source="aNo9oFmmALIDIlGO1wTB-13" target="aNo9oFmmALIDIlGO1wTB-38">
          <mxGeometry relative="1" as="geometry" />
        </mxCell>
      </root>
    </mxGraphModel>
  </diagram>
</mxfile>
